<?xml version="1.0" encoding="UTF-8"?>
<!-- softKM icon - Haiku isometric: μ fully inside green box -->
<svg xmlns="http://www.w3.org/2000/svg" viewBox="0 0 32 32" width="32" height="32">
  <defs>
    <!-- Top face - brightest -->
    <linearGradient id="topFace" x1="0%" y1="0%" x2="100%" y2="100%">
      <stop offset="0%" style="stop-color:#8DE4AD"/>
      <stop offset="50%" style="stop-color:#54C784"/>
      <stop offset="100%" style="stop-color:#45B876"/>
    </linearGradient>

    <!-- Right edge - shadow -->
    <linearGradient id="rightEdge" x1="0%" y1="0%" x2="100%" y2="0%">
      <stop offset="0%" style="stop-color:#3DAA6E"/>
      <stop offset="100%" style="stop-color:#2D8A58"/>
    </linearGradient>

    <!-- Bottom edge - darkest -->
    <linearGradient id="bottomEdge" x1="0%" y1="0%" x2="0%" y2="100%">
      <stop offset="0%" style="stop-color:#2D8A58"/>
      <stop offset="100%" style="stop-color:#1F6B42"/>
    </linearGradient>
  </defs>

  <!-- Drop shadow behind green box (offset down-right) -->
  <path d="M 5 8 L 31 13 L 31 30 L 5 25 Z" fill="#000000" opacity="0.25"/>
  <path d="M 4 7 L 30 12 L 30 31 L 4 26 Z" fill="#000000" opacity="0.15"/>

  <!-- Bottom edge (thickness) -->
  <path d="M 1 26 L 28 31 L 28 29 L 1 24 Z" fill="url(#bottomEdge)"/>

  <!-- Right edge (thickness) -->
  <path d="M 28 29 L 31 31 L 31 11 L 28 9 Z" fill="url(#rightEdge)"/>

  <!-- Top face - full size box -->
  <path d="M 1 3 Q 1 1 3 1 L 26 5 Q 28 5.5 28 7 L 28 26 Q 28 28 26 28 L 3 24 Q 1 23.5 1 22 Z"
        fill="url(#topFace)"/>

  <!-- Highlight strip top-left -->
  <path d="M 3 2 L 24 5.5 Q 26 6 26 7 L 26 11 Q 26 12 24 11.5 L 3 8 Q 2 7.8 2 7 L 2 3 Q 2 2 3 2 Z"
        fill="#FFFFFF" opacity="0.35"/>

  <!-- Georgia Italic μ - pre-transformed coordinates -->
  <!-- Shadow (offset) -->
  <path fill="#1A5A38" opacity="0.35" d="M 16.6 20.7 L 16.6 20.7 Q 15.1 22.0 13.9 22.7 Q 13.0 23.1 11.5 23.3 Q 10.6 23.3 10.0 23.1 Q 9.1 22.9 8.8 22.3 L 8.8 22.3 Q 8.5 23.2 8.5 24.1 Q 8.5 25.0 8.5 25.9 Q 8.5 28.0 8.2 28.6 Q 7.6 29.6 6.7 29.7 Q 6.4 29.7 5.8 29.5 Q 5.5 29.2 5.5 28.3 Q 5.5 28.0 6.1 26.4 Q 6.4 25.2 6.7 24.0 Q 7.0 23.0 7.3 22.7 Q 7.3 22.1 7.6 21.5 L 10.3 9.0 L 13.0 8.4 L 13.0 8.7 L 10.9 18.2 Q 10.9 18.5 10.9 19.1 Q 10.6 19.4 10.6 19.7 Q 10.6 20.6 11.2 21.2 Q 11.8 21.7 13.0 21.6 Q 13.9 21.5 14.8 20.9 Q 16.0 20.5 16.9 19.2 L 19.3 8.2 L 22.0 7.6 L 22.0 7.9 L 19.9 17.4 Q 19.9 18.0 19.6 18.6 Q 19.6 19.2 19.6 19.5 Q 19.6 20.4 19.9 20.7 Q 20.2 21.0 21.1 20.9 Q 21.4 20.9 22.0 20.8 Q 22.3 20.5 22.6 20.5 L 22.6 21.4 Q 21.4 22.1 20.5 22.2 Q 19.6 22.2 19.0 22.3 Q 17.8 22.4 17.2 22.2 Q 16.6 21.6 16.6 20.7 Z"/>
  <!-- White μ -->
  <path fill="#FFFFFF" d="M 16.2 20.3 L 16.2 20.3 Q 14.7 21.6 13.5 22.3 Q 12.6 22.7 11.1 22.9 Q 10.2 22.9 9.6 22.7 Q 8.7 22.5 8.4 21.9 L 8.4 21.9 Q 8.1 22.8 8.1 23.7 Q 8.1 24.6 8.1 25.5 Q 8.1 27.6 7.8 28.2 Q 7.2 29.2 6.3 29.3 Q 6.0 29.3 5.4 29.1 Q 5.1 28.8 5.1 27.9 Q 5.1 27.6 5.7 26.0 Q 6.0 24.8 6.3 23.6 Q 6.6 22.6 6.9 22.3 Q 6.9 21.7 7.2 21.1 L 9.9 8.6 L 12.6 8.0 L 12.6 8.3 L 10.5 17.8 Q 10.5 18.1 10.5 18.7 Q 10.2 19.0 10.2 19.3 Q 10.2 20.2 10.8 20.8 Q 11.4 21.3 12.6 21.2 Q 13.5 21.1 14.4 20.5 Q 15.6 20.1 16.5 18.8 L 18.9 7.8 L 21.6 7.2 L 21.6 7.5 L 19.5 17.0 Q 19.5 17.6 19.2 18.2 Q 19.2 18.8 19.2 19.1 Q 19.2 20.0 19.5 20.3 Q 19.8 20.6 20.7 20.5 Q 21.0 20.5 21.6 20.4 Q 21.9 20.1 22.2 20.1 L 22.2 21.0 Q 21.0 21.7 20.1 21.8 Q 19.2 21.8 18.6 21.9 Q 17.4 22.0 16.8 21.8 Q 16.2 21.2 16.2 20.3 Z"/>
</svg>
