<?xml version="1.0" encoding="UTF-8"?>
<!-- softKM icon - Haiku isometric: μ fully inside green box -->
<svg xmlns="http://www.w3.org/2000/svg" viewBox="0 0 32 32" width="32" height="32">
  <defs>
    <!-- Top face - brightest -->
    <linearGradient id="topFace" x1="0%" y1="0%" x2="100%" y2="100%">
      <stop offset="0%" style="stop-color:#8DE4AD"/>
      <stop offset="50%" style="stop-color:#54C784"/>
      <stop offset="100%" style="stop-color:#45B876"/>
    </linearGradient>

    <!-- Right edge - shadow -->
    <linearGradient id="rightEdge" x1="0%" y1="0%" x2="100%" y2="0%">
      <stop offset="0%" style="stop-color:#3DAA6E"/>
      <stop offset="100%" style="stop-color:#2D8A58"/>
    </linearGradient>

    <!-- Bottom edge - darkest -->
    <linearGradient id="bottomEdge" x1="0%" y1="0%" x2="0%" y2="100%">
      <stop offset="0%" style="stop-color:#2D8A58"/>
      <stop offset="100%" style="stop-color:#1F6B42"/>
    </linearGradient>
  </defs>

  <!-- Drop shadow behind green box (offset down-right) -->
  <path d="M 5 8 L 31 13 L 31 30 L 5 25 Z" fill="#000000" opacity="0.25"/>
  <path d="M 4 7 L 30 12 L 30 31 L 4 26 Z" fill="#000000" opacity="0.15"/>

  <!-- Bottom edge (thickness) -->
  <path d="M 1 26 L 28 31 L 28 29 L 1 24 Z" fill="url(#bottomEdge)"/>

  <!-- Right edge (thickness) -->
  <path d="M 28 29 L 31 31 L 31 11 L 28 9 Z" fill="url(#rightEdge)"/>

  <!-- Top face - full size box -->
  <path d="M 1 3 Q 1 1 3 1 L 26 5 Q 28 5.5 28 7 L 28 26 Q 28 28 26 28 L 3 24 Q 1 23.5 1 22 Z"
        fill="url(#topFace)"/>

  <!-- Highlight strip top-left -->
  <path d="M 3 2 L 24 5.5 Q 26 6 26 7 L 26 11 Q 26 12 24 11.5 L 3 8 Q 2 7.8 2 7 L 2 3 Q 2 2 3 2 Z"
        fill="#FFFFFF" opacity="0.35"/>

  <!-- Simple μ symbol (pre-positioned, no transforms) -->
  <!-- Shadow -->
  <path fill="#1A5A38" opacity="0.4" d="M 9 8 L 9 18 Q 9 20 11 20 L 11 20 Q 13 20 14 18 L 14 8 L 17 8 L 17 18 Q 17 20 19 20 Q 20 20 21 19 L 21 8 L 24 8 L 24 20 Q 24 21 23 22 L 20 22 Q 18 22 17 21 Q 16 22 14 22 Q 11 22 9 20 L 9 25 L 6 25 L 6 8 Z"/>
  <!-- White μ -->
  <path fill="#FFFFFF" d="M 8 7 L 8 17 Q 8 19 10 19 L 10 19 Q 12 19 13 17 L 13 7 L 16 7 L 16 17 Q 16 19 18 19 Q 19 19 20 18 L 20 7 L 23 7 L 23 19 Q 23 20 22 21 L 19 21 Q 17 21 16 20 Q 15 21 13 21 Q 10 21 8 19 L 8 24 L 5 24 L 5 7 Z"/>
</svg>
